# xmcd CD database file
#
# Track frame offsets:
#	150
#	20962
#	42350
#	60827
#	76760
#	97572
#	118960
#	137437
#
# Disc length: 2040 seconds
#
# Revision: 3
# Processed by: cddbd v1.5.2PL0 Copyright (c) Steve Scherf et al.
# Submitted via: CDex 1.70beta2
#
DISCID=5907f608
DTITLE=嵐 - 迷宮ラブソング
DYEAR=2011
DGENRE=Pop
TTITLE0=迷宮ラブソング
TTITLE1=together, forever
TTITLE2=うたかた
TTITLE3=wanna be...
TTITLE4=迷宮ラブソング [original karaoke]
TTITLE5=together, forever [original karaoke]
TTITLE6=うたかた [original karaoke]
TTITLE7=wanna be... [original karaoke]
EXTD=YEAR: 2011
EXTT0=
EXTT1=
EXTT2=
EXTT3=
EXTT4=
EXTT5=
EXTT6=
EXTT7=
PLAYORDER=
